<svg width="212" height="237" viewBox="0 0 212 237" fill="none" xmlns="http://www.w3.org/2000/svg">
<rect x="29.5" y="3.5" width="158" height="230" rx="16.5" stroke="#FFCC00" stroke-width="7"/>
<g clip-path="url(#clip0_11_2)">
<path d="M91.845 153.462C91.5984 153.258 91.3062 153.115 90.993 153.046C90.6797 152.978 90.3546 152.986 90.0451 153.07C89.7355 153.153 89.4506 153.31 89.2143 153.527C88.9781 153.743 88.7974 154.014 88.6875 154.315L83.1875 169.417L77.1475 163.565C76.9447 163.368 76.7024 163.217 76.4368 163.12C76.1711 163.024 75.8881 162.985 75.6063 163.006C75.3245 163.027 75.0503 163.108 74.8019 163.242C74.5535 163.377 74.3364 163.563 74.165 163.787C68.75 170.882 66 178.02 66 185C66 190.835 68.3179 196.431 72.4437 200.556C76.5695 204.682 82.1652 207 88 207C93.8348 207 99.4305 204.682 103.556 200.556C107.682 196.431 110 190.835 110 185C110 170.137 97.3025 158 91.845 153.462ZM101.972 187.335C101.454 190.232 100.06 192.9 97.9791 194.981C95.898 197.061 93.2294 198.455 90.3325 198.972C90.2227 198.991 90.1114 199.001 90 199C89.4983 199 89.015 198.811 88.6459 198.471C88.2768 198.132 88.0489 197.666 88.0074 197.166C87.9659 196.666 88.1137 196.168 88.4217 195.772C88.7297 195.376 89.1752 195.11 89.67 195.027C93.8125 194.33 97.3275 190.815 98.03 186.665C98.1188 186.142 98.4119 185.675 98.8446 185.368C99.2774 185.061 99.8144 184.939 100.338 185.027C100.861 185.116 101.327 185.409 101.634 185.842C101.941 186.275 102.064 186.812 101.975 187.335H101.972Z" fill="url(#paint0_linear_11_2)"/>
</g>
<g clip-path="url(#clip1_11_2)">
<path d="M147.757 177.405L121.507 205.53C121.229 205.827 120.862 206.025 120.461 206.095C120.06 206.165 119.648 206.102 119.285 205.917C118.923 205.732 118.631 205.434 118.453 205.068C118.275 204.702 118.221 204.288 118.299 203.889L121.734 186.702L108.227 181.631C107.937 181.522 107.679 181.343 107.475 181.11C107.27 180.878 107.127 180.598 107.057 180.296C106.988 179.994 106.994 179.68 107.075 179.381C107.157 179.082 107.311 178.808 107.524 178.584L133.774 150.459C134.053 150.162 134.42 149.963 134.82 149.894C135.221 149.824 135.634 149.886 135.996 150.071C136.358 150.256 136.651 150.554 136.829 150.92C137.007 151.286 137.061 151.7 136.983 152.099L133.538 169.305L147.045 174.37C147.333 174.479 147.589 174.657 147.792 174.889C147.994 175.121 148.137 175.399 148.206 175.7C148.276 176 148.27 176.312 148.19 176.609C148.11 176.907 147.958 177.18 147.748 177.405H147.757Z" fill="url(#paint1_linear_11_2)"/>
</g>
<path d="M137.979 111.962C150.834 110.912 151.434 131.328 111.42 130.498C89.969 130.052 69.4681 119.193 70.8254 92.8661C72.1827 66.5393 91.9996 50.6993 115.559 53.3483C142.086 56.331 151.093 81.8683 137.979 111.962Z" fill="#2984F6"/>
<g filter="url(#filter0_f_11_2)">
<path d="M129.637 141.347C129.379 146.352 119.17 148.463 108.673 147.904C98.1767 147.345 83.1086 143.887 83.3666 138.882C83.6246 133.877 94.8541 133.019 109.401 133.794C122.947 134.515 129.895 136.342 129.637 141.347Z" fill="#DADADA"/>
</g>
<path d="M143.407 79.1928C140.501 60.6386 125 56 125 56C125 56 137.594 66.9337 139.532 79.1928C141.469 91.4518 137.594 111 137.594 111C137.594 111 146.313 97.747 143.407 79.1928Z" fill="#156DDC"/>
<ellipse cx="97.1198" cy="79.9328" rx="10.5907" ry="12.7843" fill="white"/>
<path d="M126.906 79.9328C126.906 86.9934 122.164 92.7171 116.315 92.7171C110.466 92.7171 103.739 90.0212 103.739 82.9607C103.739 75.9001 110.466 67.1486 116.315 67.1486C122.164 67.1486 126.906 72.8723 126.906 79.9328Z" fill="white"/>
<ellipse cx="116.646" cy="82.6242" rx="8.27397" ry="10.0928" fill="#072346"/>
<ellipse cx="96.7888" cy="82.6242" rx="8.27397" ry="10.0928" fill="#072346"/>
<path d="M112.999 78.2248C113.073 77.8591 113.596 77.86 113.669 78.2259L114.082 80.2838C114.135 80.5478 114.323 80.7646 114.576 80.8553L116.401 81.5084C116.799 81.6506 116.787 82.2166 116.384 82.3419C116.334 82.3575 116.287 82.3819 116.245 82.414L114.383 83.8554C114.242 83.9643 114.133 84.1087 114.067 84.2738L113.349 86.0606C113.341 86.0814 113.337 86.1035 113.337 86.1258C113.337 86.3278 113.051 86.3691 112.994 86.1755L112.245 83.642C112.2 83.4912 112.094 83.3663 111.952 83.2979L110.02 82.3654C109.66 82.2141 109.665 81.7018 110.028 81.5581L111.74 80.881C112.016 80.7721 112.229 80.5468 112.322 80.2658L112.999 78.2248Z" fill="white"/>
<path d="M99.7602 78.2248C99.8349 77.8591 100.358 77.86 100.431 78.2259L100.844 80.2838C100.897 80.5478 101.084 80.7646 101.338 80.8553L103.163 81.5084C103.56 81.6506 103.548 82.2166 103.145 82.3419C103.095 82.3575 103.049 82.3819 103.007 82.414L101.144 83.8554C101.004 83.9643 100.895 84.1087 100.828 84.2738L100.111 86.0606C100.103 86.0814 100.098 86.1035 100.098 86.1258C100.098 86.3278 99.813 86.3691 99.7557 86.1755L99.0064 83.642C98.9618 83.4912 98.8556 83.3663 98.7141 83.2979L96.7816 82.3654C96.4214 82.2141 96.4268 81.7018 96.7901 81.5581L98.502 80.881C98.7773 80.7721 98.9902 80.5468 99.0834 80.2658L99.7602 78.2248Z" fill="white"/>
<path d="M119.204 80.0889C119.752 80.2314 120.314 79.8691 120.278 79.3036C120.25 78.8798 120.165 78.4624 120.022 78.0703C119.761 77.355 119.324 76.7612 118.774 76.3748C118.224 75.9884 117.589 75.8294 116.961 75.9209C116.597 75.974 116.246 76.11 115.924 76.3193C115.505 76.5927 115.496 77.1695 115.795 77.5706L116.165 78.0649C116.381 78.3551 116.826 78.3386 117.185 78.2864C117.408 78.2538 117.635 78.3105 117.831 78.4482C118.027 78.5859 118.183 78.7975 118.275 79.0525C118.435 79.4917 118.694 79.9566 119.147 80.0741L119.204 80.0889Z" fill="white"/>
<path d="M94.1829 77.5382C94.3907 77.0014 94.1437 76.3197 93.5715 76.2566C93.309 76.2277 93.0429 76.2431 92.7807 76.304C92.1812 76.4435 91.6332 76.814 91.216 77.362C90.7988 77.9099 90.5341 78.607 90.4601 79.3523C90.4289 79.6673 90.4324 79.9841 90.4693 80.2944C90.5464 80.9411 91.2627 81.1928 91.7592 80.8512L91.821 80.8087C92.1682 80.5699 92.2533 80.073 92.2974 79.6283C92.3238 79.3627 92.4181 79.1143 92.5668 78.919C92.7155 78.7237 92.9108 78.5916 93.1245 78.5419C93.4586 78.4642 93.8637 78.363 93.9907 78.035L94.1829 77.5382Z" fill="white"/>
<path d="M99.2881 87.6707C99.2881 88.5997 98.6546 89.3528 97.873 89.3528C97.0914 89.3528 96.4579 89.0202 96.4579 88.0912C96.4579 87.1622 97.0914 86.4091 97.873 86.4091C98.6546 86.4091 99.2881 86.7416 99.2881 87.6707Z" fill="white"/>
<path d="M116.977 87.2501C116.977 88.1792 116.344 88.9323 115.562 88.9323C114.781 88.9323 114.147 88.5997 114.147 87.6707C114.147 86.7416 114.781 85.9885 115.562 85.9885C116.344 85.9885 116.977 86.3211 116.977 87.2501Z" fill="white"/>
<ellipse cx="102.5" cy="94.5" rx="24.5" ry="6.5" fill="#2984F6"/>
<path d="M115.308 96.2875C115.339 98.0751 113.329 104.731 106.931 104.845C100.533 104.958 93.9924 98.4984 93.9617 96.7108C92.9027 93.3304 100.493 92.9789 106.891 92.8653C113.289 92.7518 115.277 94.5 115.308 96.2875Z" fill="#8F2627"/>
<path d="M94.809 97.9582C95.0843 96.9823 100.41 94.3144 104.826 95.6015C109.242 96.8886 110.71 102.279 110.435 103.255C109.867 104.645 107.28 105.418 102.864 104.131C98.4485 102.843 94.5337 98.9342 94.809 97.9582Z" fill="#CD4949"/>
<path d="M57.3498 86.6235C67.8723 85.6529 68.5725 101.83 35.779 101.602C18.199 101.48 1.29049 93.0928 2.13279 72.2095C2.9751 51.3263 19.0496 38.5569 38.3799 40.403C60.1447 42.4817 67.7864 62.6275 57.3498 86.6235Z" fill="#2984F6"/>
<g filter="url(#filter1_f_11_2)">
<path d="M52.4771 109.93C52.317 113.9 43.974 115.683 35.3678 115.353C26.7617 115.023 14.3804 112.444 14.5405 108.474C14.7006 104.504 23.8925 103.702 35.8193 104.16C46.9255 104.586 52.6373 105.96 52.4771 109.93Z" fill="#DADADA"/>
</g>
<path d="M61.428 60.0656C58.8486 45.2338 46 42 46 42C46 42 56.5265 50.308 58.2449 60.1075C59.9634 69.9069 56.9828 85.6083 56.9828 85.6083C56.9828 85.6083 64.0074 74.8975 61.428 60.0656Z" fill="#1C5DAF"/>
<path d="M48.5426 75.1297C48.5801 78.0265 39.7599 80.4911 28.8422 80.6346C17.9246 80.7781 9.0437 78.5461 9.00625 75.6493C8.9688 72.7525 17.789 70.2879 28.7066 70.1444C39.6243 70.0009 48.5052 72.2329 48.5426 75.1297Z" fill="#2984F6"/>
<path d="M34.6399 77.6835C34.6095 78.4139 31.0916 80.6422 27.0346 80.4913C22.9776 80.3404 19.0134 77.5027 19.0438 76.7722C19.0741 76.0418 23.0418 78.7974 27.0987 78.9484C31.1557 79.0993 34.6702 76.9531 34.6399 77.6835Z" fill="#103D75"/>
<rect width="14.6428" height="21.3383" rx="7.32141" transform="matrix(1.00001 -0.0131423 0.0129253 0.999812 12.0362 52.6216)" fill="white"/>
<rect width="12.4735" height="16.0037" rx="6.23676" transform="matrix(1.00001 -0.0131423 0.0129253 0.999812 12.1052 57.9552)" fill="#072346"/>
<path d="M24.3546 62.6483C23.5979 63.7474 20.6627 63.4917 20.1465 63.4376C20.094 63.4321 20.0402 63.4279 19.9874 63.4248C17.5003 63.2806 17.5067 61.5669 17.5953 60.9339C17.6171 60.7775 17.6413 60.6223 17.6737 60.4677C17.8989 59.3944 19.2285 56.1407 21.2216 56.4777C23.4169 56.8488 25.1852 61.4419 24.3546 62.6483Z" fill="white"/>
<rect width="14.6428" height="21.3383" rx="7.32141" transform="matrix(1.00001 -0.0131423 0.0129253 0.999812 29.9263 51.8529)" fill="white"/>
<path d="M30.0724 63.1511C30.0298 59.857 32.6662 57.1515 35.961 57.1082C39.2557 57.0649 41.9612 59.7002 42.0038 62.9943L42.0564 67.066C42.099 70.3601 39.4626 73.0656 36.1678 73.1089C32.8731 73.1522 30.1676 70.5169 30.125 67.2228L30.0724 63.1511Z" fill="#072346"/>
<path d="M41.8995 61.1476C41.1428 62.2467 38.2076 61.9911 37.6914 61.9369C37.6388 61.9314 37.5851 61.9272 37.5323 61.9241C35.0452 61.7799 35.0516 60.0662 35.1402 59.4333C35.162 59.2768 35.1862 59.1216 35.2186 58.967C35.4438 57.8937 36.7734 54.64 38.7665 54.977C40.9618 55.3481 42.7301 59.9412 41.8995 61.1476Z" fill="white"/>
<path d="M50.4912 61.1839C50.2517 59.6957 51.6001 58.4108 53.0869 58.7103L62.9395 60.6949C64.128 60.9343 64.8775 62.0916 64.6096 63.2738C64.3429 64.4507 63.169 65.2055 61.9876 64.9596L52.149 62.9119C51.2869 62.7325 50.6302 62.048 50.4912 61.1839Z" fill="#FFCC00"/>
<path d="M15.7607 74.9132C22.4909 74.8247 28.0768 69.511 27.9902 62.8094C27.9036 56.1078 22.1821 50.9427 15.4519 51.0312C8.72176 51.1196 3.1358 56.4333 3.22244 63.1349C3.30907 69.8365 9.0305 75.0016 15.7607 74.9132Z" stroke="#FFCC00" stroke-width="5"/>
<path d="M40.2108 74.5918C47.1035 74.5012 53.0487 69.299 52.9605 62.4812C52.8724 55.6635 46.7948 50.6192 39.9021 50.7098C33.0094 50.8004 27.0642 56.0026 27.1524 62.8204C27.2405 69.6382 33.3181 74.6824 40.2108 74.5918Z" stroke="#FFCC00" stroke-width="5"/>
<path d="M203.473 90.6982C214.031 89.6247 214.864 105.98 181.933 106.036C164.28 106.066 147.234 97.7299 147.913 76.6007C148.591 55.4715 164.63 42.4161 184.055 44.1148C205.926 46.0276 213.761 66.337 203.473 90.6982Z" fill="#2984F6"/>
<g filter="url(#filter2_f_11_2)">
<path d="M198.767 114.313C198.638 118.33 190.275 120.206 181.63 119.947C172.986 119.688 160.533 117.188 160.662 113.171C160.791 109.155 170.014 108.264 181.994 108.623C193.15 108.957 198.896 110.296 198.767 114.313Z" fill="#DADADA"/>
</g>
<path d="M207.957 64.3747C205.144 50.1693 191.647 46.8984 191.647 46.8984C191.647 46.8984 202.728 55.0629 204.601 64.4483C206.474 73.8337 203.43 88.9317 203.43 88.9317C203.43 88.9317 210.769 78.5801 207.957 64.3747Z" fill="#156DDC"/>
<path d="M171.663 83.4799C171.724 84.3034 173.631 84.3802 176.493 84.1687C179.356 83.9571 182.008 80.7163 181.947 79.8928C181.886 79.0693 179.227 82.2176 176.365 82.4292C173.503 82.6407 171.602 82.6564 171.663 83.4799Z" fill="#103D75"/>
<path d="M181.506 79.0328C180.534 79.0079 180.666 80.4928 180.901 81.4279C181.125 82.3204 181.778 83.852 182.448 83.2142C182.989 82.7002 182.351 82.0581 182.202 81.3317C182.014 80.4131 182.453 79.057 181.506 79.0328Z" fill="#103D75"/>
<rect width="16.5519" height="24.2953" rx="8.27594" transform="matrix(0.999871 -0.0219158 0.0207451 0.999671 159.49 54.9071)" fill="white"/>
<rect width="14.0998" height="18.2215" rx="7.04988" transform="matrix(0.999871 -0.0219158 0.0207451 0.999671 159.616 60.9789)" fill="#072346"/>
<path d="M173.504 66.2019C172.653 67.4686 169.297 67.1952 168.744 67.1408C168.691 67.1356 168.638 67.1319 168.585 67.1294C165.715 66.9914 165.754 64.9728 165.853 64.2812C165.875 64.1259 165.897 63.973 165.926 63.8189C166.15 62.6314 167.63 58.8397 169.907 59.2072C172.392 59.6082 174.432 64.8202 173.504 66.2019Z" fill="white"/>
<rect width="16.5519" height="24.2953" rx="8.27594" transform="matrix(0.999871 -0.0219158 0.0207451 0.999671 178.022 53.8932)" fill="white"/>
<rect width="13.4867" height="18.2215" rx="6.74336" transform="matrix(0.999871 -0.0219158 0.0207451 0.999671 178.148 59.9651)" fill="#072346"/>
<path d="M191.64 64.358C190.789 65.6247 187.432 65.3512 186.88 65.2969C186.827 65.2917 186.773 65.288 186.72 65.2855C183.85 65.1475 183.89 63.1289 183.989 62.4373C184.011 62.282 184.033 62.1291 184.062 61.9749C184.285 60.7875 185.765 56.9957 188.043 57.3632C190.527 57.7642 192.568 62.9763 191.64 64.358Z" fill="white"/>
<rect width="19.9832" height="7.24826" rx="3.62413" transform="matrix(0.99976 -0.0219134 0.0207474 0.999785 176.445 50.8566)" fill="#1C5DAF"/>
<rect width="17.6322" height="7.24826" rx="3.62413" transform="matrix(0.99976 -0.0219134 0.0207474 0.999785 158.817 51.243)" fill="#1C5DAF"/>
<path d="M45 27H164" stroke="#1C1C1E" stroke-opacity="0.2" stroke-width="10" stroke-linecap="round"/>
<path d="M45 27H129" stroke="#00E884" stroke-width="10" stroke-linecap="round"/>
<defs>
<filter id="filter0_f_11_2" x="73.3633" y="123.545" width="66.2809" height="34.4472" filterUnits="userSpaceOnUse" color-interpolation-filters="sRGB">
<feFlood flood-opacity="0" result="BackgroundImageFix"/>
<feBlend mode="normal" in="SourceGraphic" in2="BackgroundImageFix" result="shape"/>
<feGaussianBlur stdDeviation="5" result="effect1_foregroundBlur_11_2"/>
</filter>
<filter id="filter1_f_11_2" x="4.53894" y="94.0447" width="57.9415" height="31.3468" filterUnits="userSpaceOnUse" color-interpolation-filters="sRGB">
<feFlood flood-opacity="0" result="BackgroundImageFix"/>
<feBlend mode="normal" in="SourceGraphic" in2="BackgroundImageFix" result="shape"/>
<feGaussianBlur stdDeviation="5" result="effect1_foregroundBlur_11_2"/>
</filter>
<filter id="filter2_f_11_2" x="150.661" y="98.5502" width="58.1082" height="31.4209" filterUnits="userSpaceOnUse" color-interpolation-filters="sRGB">
<feFlood flood-opacity="0" result="BackgroundImageFix"/>
<feBlend mode="normal" in="SourceGraphic" in2="BackgroundImageFix" result="shape"/>
<feGaussianBlur stdDeviation="5" result="effect1_foregroundBlur_11_2"/>
</filter>
<linearGradient id="paint0_linear_11_2" x1="88" y1="153" x2="88" y2="207" gradientUnits="userSpaceOnUse">
<stop stop-color="#FF6B6B"/>
<stop offset="0.435" stop-color="#FC7878"/>
<stop offset="0.67" stop-color="#FA8080"/>
<stop offset="1" stop-color="#F78A8A"/>
</linearGradient>
<linearGradient id="paint1_linear_11_2" x1="127.632" y1="149.866" x2="127.632" y2="206.123" gradientUnits="userSpaceOnUse">
<stop stop-color="#FF9933"/>
<stop offset="1" stop-color="#FFCC00"/>
</linearGradient>
<clipPath id="clip0_11_2">
<rect width="64" height="64" fill="white" transform="translate(56 149)"/>
</clipPath>
<clipPath id="clip1_11_2">
<rect width="60" height="60" fill="white" transform="translate(99 148)"/>
</clipPath>
</defs>
</svg>

