<svg width="255" height="92" viewBox="0 0 255 92" fill="none" xmlns="http://www.w3.org/2000/svg">
<path d="M86.6683 61.4533C96.2951 60.6336 96.7152 76.2148 66.7572 75.6379C50.6973 75.3286 35.3632 67.0696 36.4164 46.9742C37.4695 26.8788 52.329 14.7609 69.9646 16.7491C89.8213 18.9878 96.5294 38.4658 86.6683 61.4533Z" fill="#2984F6"/>
<path d="M114.15 37.25C116.05 37.25 117.7 37.45 119.1 37.85C120.533 38.25 121.633 38.8167 122.4 39.55C123.2 40.25 123.6 41.1 123.6 42.1C123.6 42.7667 123.4 43.4 123 44C122.6 44.5667 122.017 44.85 121.25 44.85C120.717 44.85 120.267 44.7833 119.9 44.65C119.567 44.4833 119.267 44.2833 119 44.05C118.733 43.8167 118.417 43.6 118.05 43.4C117.717 43.2 117.2 43.05 116.5 42.95C115.833 42.8167 115.333 42.75 115 42.75C113.3 42.75 111.85 43.1167 110.65 43.85C109.483 44.5833 108.583 45.5833 107.95 46.85C107.317 48.0833 107 49.5167 107 51.15C107 52.75 107.317 54.1833 107.95 55.45C108.617 56.6833 109.517 57.6667 110.65 58.4C111.817 59.1333 113.15 59.5 114.65 59.5C115.483 59.5 116.2 59.45 116.8 59.35C117.4 59.25 117.9 59.1 118.3 58.9C118.767 58.6333 119.183 58.35 119.55 58.05C119.917 57.75 120.467 57.6 121.2 57.6C122.067 57.6 122.733 57.8833 123.2 58.45C123.667 58.9833 123.9 59.65 123.9 60.45C123.9 61.2833 123.433 62.05 122.5 62.75C121.567 63.4167 120.333 63.9667 118.8 64.4C117.3 64.8 115.667 65 113.9 65C111.267 65 108.983 64.4 107.05 63.2C105.117 61.9667 103.617 60.3 102.55 58.2C101.517 56.1 101 53.75 101 51.15C101 48.4167 101.55 46.0167 102.65 43.95C103.783 41.85 105.333 40.2167 107.3 39.05C109.3 37.85 111.583 37.25 114.15 37.25ZM150.177 51.15C150.177 53.8833 149.56 56.3 148.327 58.4C147.127 60.4667 145.493 62.0833 143.427 63.25C141.393 64.4167 139.11 65 136.577 65C134.043 65 131.743 64.4167 129.677 63.25C127.643 62.0833 126.01 60.4667 124.777 58.4C123.577 56.3 122.977 53.8833 122.977 51.15C122.977 48.4167 123.577 46.0167 124.777 43.95C126.01 41.85 127.643 40.2167 129.677 39.05C131.743 37.85 134.043 37.25 136.577 37.25C139.11 37.25 141.393 37.85 143.427 39.05C145.493 40.2167 147.127 41.85 148.327 43.95C149.56 46.0167 150.177 48.4167 150.177 51.15ZM144.177 51.15C144.177 49.45 143.827 47.9833 143.127 46.75C142.46 45.4833 141.543 44.5 140.377 43.8C139.243 43.1 137.977 42.75 136.577 42.75C135.177 42.75 133.893 43.1 132.727 43.8C131.593 44.5 130.677 45.4833 129.977 46.75C129.31 47.9833 128.977 49.45 128.977 51.15C128.977 52.8167 129.31 54.2833 129.977 55.55C130.677 56.7833 131.593 57.75 132.727 58.45C133.893 59.15 135.177 59.5 136.577 59.5C137.977 59.5 139.243 59.15 140.377 58.45C141.543 57.75 142.46 56.7833 143.127 55.55C143.827 54.2833 144.177 52.8167 144.177 51.15ZM165.728 37.25C168.194 37.25 170.061 37.7667 171.328 38.8C172.628 39.8333 173.511 41.2167 173.978 42.95C174.478 44.65 174.728 46.55 174.728 48.65V61.45C174.728 62.3167 174.444 63.05 173.878 63.65C173.311 64.2167 172.594 64.5 171.728 64.5C170.861 64.5 170.144 64.2167 169.578 63.65C169.011 63.05 168.728 62.3167 168.728 61.45V48.65C168.728 47.55 168.578 46.5667 168.278 45.7C168.011 44.8 167.511 44.0833 166.778 43.55C166.044 43.0167 164.994 42.75 163.628 42.75C162.294 42.75 161.161 43.0167 160.228 43.55C159.328 44.0833 158.628 44.8 158.128 45.7C157.661 46.5667 157.428 47.55 157.428 48.65V61.45C157.428 62.3167 157.144 63.05 156.578 63.65C156.011 64.2167 155.294 64.5 154.428 64.5C153.561 64.5 152.844 64.2167 152.278 63.65C151.711 63.05 151.428 62.3167 151.428 61.45V40.8C151.428 39.9333 151.711 39.2167 152.278 38.65C152.844 38.05 153.561 37.75 154.428 37.75C155.294 37.75 156.011 38.05 156.578 38.65C157.144 39.2167 157.428 39.9333 157.428 40.8V42.95L156.678 42.8C156.978 42.2333 157.411 41.6333 157.978 41C158.544 40.3333 159.211 39.7167 159.978 39.15C160.744 38.5833 161.611 38.1333 162.578 37.8C163.544 37.4333 164.594 37.25 165.728 37.25ZM177.513 38.25H189.363C190.163 38.25 190.83 38.5167 191.363 39.05C191.896 39.5833 192.163 40.25 192.163 41.05C192.163 41.8167 191.896 42.4667 191.363 43C190.83 43.5 190.163 43.75 189.363 43.75H177.513C176.713 43.75 176.046 43.4833 175.513 42.95C174.98 42.4167 174.713 41.75 174.713 40.95C174.713 40.1833 174.98 39.55 175.513 39.05C176.046 38.5167 176.713 38.25 177.513 38.25ZM182.863 32C183.73 32 184.43 32.3 184.963 32.9C185.53 33.4667 185.813 34.1833 185.813 35.05V57.3C185.813 57.7667 185.896 58.15 186.063 58.45C186.263 58.75 186.513 58.9667 186.813 59.1C187.146 59.2333 187.496 59.3 187.863 59.3C188.263 59.3 188.63 59.2333 188.963 59.1C189.296 58.9333 189.68 58.85 190.113 58.85C190.58 58.85 190.996 59.0667 191.363 59.5C191.763 59.9333 191.963 60.5333 191.963 61.3C191.963 62.2333 191.446 63 190.413 63.6C189.413 64.2 188.33 64.5 187.163 64.5C186.463 64.5 185.68 64.45 184.813 64.35C183.98 64.2167 183.18 63.9333 182.413 63.5C181.68 63.0333 181.063 62.3333 180.563 61.4C180.063 60.4667 179.813 59.1833 179.813 57.55V35.05C179.813 34.1833 180.096 33.4667 180.663 32.9C181.263 32.3 181.996 32 182.863 32ZM213.522 37.75C214.389 37.75 215.105 38.05 215.672 38.65C216.239 39.2167 216.522 39.9333 216.522 40.8V62.05C216.522 65.1167 215.939 67.55 214.772 69.35C213.639 71.1833 212.105 72.5 210.172 73.3C208.239 74.1 206.072 74.5 203.672 74.5C202.605 74.5 201.472 74.4167 200.272 74.25C199.072 74.0833 198.089 73.8333 197.322 73.5C196.322 73.0667 195.622 72.5167 195.222 71.85C194.855 71.2167 194.789 70.5333 195.022 69.8C195.322 68.8333 195.805 68.1667 196.472 67.8C197.139 67.4667 197.839 67.4333 198.572 67.7C199.105 67.8667 199.805 68.1167 200.672 68.45C201.539 68.8167 202.539 69 203.672 69C205.205 69 206.472 68.7833 207.472 68.35C208.505 67.95 209.272 67.25 209.772 66.25C210.305 65.2833 210.572 63.95 210.572 62.25V58.9L211.622 60.1C211.055 61.2 210.339 62.1167 209.472 62.85C208.639 63.55 207.639 64.0833 206.472 64.45C205.305 64.8167 203.972 65 202.472 65C200.705 65 199.155 64.6 197.822 63.8C196.522 62.9667 195.505 61.8333 194.772 60.4C194.039 58.9333 193.672 57.2667 193.672 55.4V40.8C193.672 39.9333 193.955 39.2167 194.522 38.65C195.089 38.05 195.805 37.75 196.672 37.75C197.539 37.75 198.255 38.05 198.822 38.65C199.389 39.2167 199.672 39.9333 199.672 40.8V53.6C199.672 55.7667 200.139 57.3 201.072 58.2C202.039 59.0667 203.372 59.5 205.072 59.5C206.239 59.5 207.222 59.2833 208.022 58.85C208.822 58.3833 209.439 57.7167 209.872 56.85C210.305 55.95 210.522 54.8667 210.522 53.6V40.8C210.522 39.9333 210.805 39.2167 211.372 38.65C211.939 38.05 212.655 37.75 213.522 37.75Z" fill="#2984F6"/>
</svg>

