<svg width="212" height="132" viewBox="0 0 212 132" fill="none" xmlns="http://www.w3.org/2000/svg">
<rect width="65.9606" height="16.34" rx="8.17001" transform="matrix(0.967302 -0.253628 0.243906 0.969799 144.211 22.1831)" fill="#00E884"/>
<rect opacity="0.5" width="51.6989" height="16.34" rx="8.17001" transform="matrix(0.967302 -0.253628 0.243906 0.969799 152.135 46.3813)" fill="#00E884"/>
<rect width="41.0026" height="10.8933" rx="5.44667" transform="matrix(0.967302 -0.253628 0.243906 0.969799 158.335 71.0308)" fill="#00E884" fill-opacity="0.2"/>
<path d="M115.51 93.8762C136.205 89.9875 140.531 122.887 75.4465 128.366C40.5557 131.303 5.49586 117.244 3.37411 74.4558C1.25236 31.668 30.8159 2.6848 69.4915 2.95061C113.038 3.24991 131.853 42.9946 115.51 93.8762Z" fill="#00E884"/>
<path d="M122.947 37.2614C114.411 8.91929 83.8317 4.82129 83.8317 4.82129C83.8317 4.82129 109.813 19.3225 115.486 38.045C121.159 56.7675 116.795 88.0308 116.795 88.0308C116.795 88.0308 131.483 65.6035 122.947 37.2614Z" fill="#11C97A"/>
<rect width="32.8302" height="49.2314" rx="16.4151" transform="matrix(0.99464 -0.104464 0.101094 0.994768 22.7029 28.7515)" fill="white"/>
<rect width="27.9664" height="36.9235" rx="13.9832" transform="matrix(0.99464 -0.104464 0.101094 0.994768 23.9471 40.9949)" fill="#072346"/>
<path d="M52.2555 49.2818C50.7432 52.0489 43.752 51.9714 42.926 51.9524C42.8716 51.9511 42.8163 51.9517 42.7619 51.9539C36.605 52.1984 36.7253 47.4995 36.8367 46.4027C36.8522 46.2499 36.8595 46.1028 36.8668 45.9494C36.9666 43.8616 39.2693 35.3549 43.999 35.7398C48.9763 36.1448 53.8633 46.3398 52.2555 49.2818Z" fill="white"/>
<rect width="32.8302" height="49.2314" rx="16.4151" transform="matrix(0.99464 -0.104464 0.101094 0.994768 59.1697 23.6841)" fill="white"/>
<rect width="26.7505" height="36.9235" rx="13.3753" transform="matrix(0.99464 -0.104464 0.101094 0.994768 60.4139 35.9275)" fill="#072346"/>
<path d="M87.8017 42.6021C86.2895 45.3692 79.2983 45.2917 78.4722 45.2727C78.4178 45.2715 78.3625 45.272 78.3082 45.2742C72.1513 45.5187 72.2716 40.8198 72.3829 39.723C72.3984 39.5702 72.4057 39.4231 72.4131 39.2697C72.5129 37.1819 74.8156 28.6752 79.5453 29.0601C84.5225 29.4651 89.4096 39.6601 87.8017 42.6021Z" fill="white"/>
<rect width="37.9832" height="14.4681" rx="7.23404" transform="matrix(0.999478 -0.0323231 0.0318804 0.999492 15.5887 21.377)" fill="#11C97A"/>
<path d="M70.1768 73.8931C68.25 74.0013 68.7549 76.979 69.3719 78.8295C69.9609 80.5957 71.5033 83.5829 72.7237 82.1854C73.7073 81.0591 72.3422 79.866 71.9285 78.4231C71.4055 76.5985 72.051 73.7879 70.1768 73.8931Z" fill="#11C97A"/>
<path d="M51.0526 84.0443C51.3076 85.6977 55.0906 85.5421 60.7135 84.6484C66.3363 83.7547 71.0476 76.7766 70.7926 75.1232C70.5376 73.4698 65.7976 80.2621 60.1748 81.1558C54.5519 82.0495 50.7976 82.391 51.0526 84.0443Z" fill="#11C97A"/>
<rect width="38.0011" height="14.4614" rx="7.23072" transform="matrix(0.987825 -0.155571 0.150234 0.988651 57.2451 19.1714)" fill="#11C97A"/>
</svg>

